<?xml version="1.0" standalone="no"?><!DOCTYPE svg PUBLIC "-//W3C//DTD SVG 1.1//EN" "http://www.w3.org/Graphics/SVG/1.1/DTD/svg11.dtd"><svg t="1504253484811" class="icon" style="" viewBox="0 0 1024 1024" version="1.1" xmlns="http://www.w3.org/2000/svg" p-id="6901" xmlns:xlink="http://www.w3.org/1999/xlink" width="200" height="200"><defs><style type="text/css"></style></defs><path d="M512 1024c-153.6 0-448-230.4-448-448V160c0-12.8 6.4-19.2 19.2-19.2h25.6s102.4 0 204.8-44.8C416 64 486.4 12.8 486.4 12.8l12.8-12.8H512c6.4 0 6.4 0 12.8 6.4l12.8 12.8s70.4 44.8 172.8 89.6c102.4 38.4 204.8 44.8 204.8 44.8h25.6c12.8 0 19.2 6.4 19.2 19.2V576c0 217.6-294.4 448-448 448z m377.6-812.8c-38.4 0-121.6-12.8-204.8-44.8C601.6 134.4 537.6 96 512 76.8c-25.6 19.2-89.6 57.6-172.8 89.6-89.6 32-166.4 44.8-204.8 44.8V576c0 172.8 256 377.6 377.6 377.6 51.2 0 140.8-38.4 236.8-121.6 89.6-83.2 140.8-179.2 140.8-256V211.2z m-416 435.2c-6.4 6.4-12.8 12.8-25.6 12.8-6.4 0-19.2-6.4-25.6-12.8L326.4 544c-12.8-12.8-12.8-32 0-44.8 12.8-12.8 38.4-12.8 51.2 0L454.4 576l198.4-198.4c12.8-12.8 38.4-12.8 51.2 0 12.8 12.8 12.8 32 0 51.2l-230.4 217.6z" p-id="6902"></path></svg>