<?xml version="1.0" encoding="utf-8"?>
<!-- Generator: Adobe Illustrator 19.0.0, SVG Export Plug-In . SVG Version: 6.00 Build 0)  -->
<svg version="1.1" id="图层_1" xmlns="http://www.w3.org/2000/svg" xmlns:xlink="http://www.w3.org/1999/xlink" x="0px" y="0px"
	 viewBox="0 0 515 40" style="enable-background:new 0 0 515 40;" xml:space="preserve">
<style type="text/css">
	.st0{fill:#FFFFFF;}
	.st1{fill:#FFFFFF;stroke:#CC3A38;stroke-width:2.834646e-02;stroke-miterlimit:10;}
</style>
<path id="XMLID_172_" class="st0" d="M56.9,12.4c0.6-1.1,1.4-2.1,2.3-2.8c0.9-0.7,2-1.3,3.3-1.7c1.2-0.4,2.6-0.5,4.1-0.5h12.7
	l0.8-5.1h-13c-6.1,0-10.7,1.4-14,4.3c-1.6,1.4-3,3.3-4.1,5.5c-1.1,2.2-1.9,4.9-2.4,8c-0.5,3.2-0.5,5.9,0.1,8.2
	c0.6,2.3,1.7,4.1,3.4,5.5c1.5,1.3,3.1,2.1,5.1,2.5c1.8,0.4,3.8,0.5,6.2,0.5h13.1l0.8-5.1H62.6c-3.4,0-5.6-0.7-6.9-2.1
	c-1.3-1.5-1.7-3.8-1.2-7.2l0.1-0.6H77l0.8-5.1H55.3l0.1-0.5C55.8,14.8,56.2,13.5,56.9,12.4z"/>
<polygon id="XMLID_171_" class="st0" points="118.3,2.3 112.9,36.9 121.2,36.9 126.7,2.3 "/>
<polygon id="XMLID_170_" class="st0" points="161,2.3 152.6,2.3 149.4,22.6 141.4,2.3 131.6,2.3 126.2,36.9 132.4,36.9 134.6,36.9 
	138,15.3 146.2,36.9 155.5,36.9 161,2.3 161,2.3 "/>
<polygon id="XMLID_169_" class="st0" points="113.4,2.3 103.2,2.3 91.4,14.1 93.3,2.3 85.1,2.3 79.6,36.8 87.8,36.8 89.9,23.6 
	97.5,36.4 97.7,36.8 107.7,36.8 96.9,18.7 "/>
<polygon id="XMLID_168_" class="st0" points="50.4,2.3 40.2,2.3 28.3,14.1 30.3,2.3 22.1,2.3 16.5,36.8 24.7,36.8 26.8,23.6 
	34.6,36.8 44.6,36.8 33.8,18.7 "/>
<path id="XMLID_167_" class="st0" d="M170.8,21.9l0.9-5.1l0.1-0.5c0.3-1.5,0.8-2.7,1.4-3.8c0.6-1.1,1.4-2.1,2.3-2.8
	c0.9-0.7,2-1.3,3.3-1.7c1.2-0.4,2.6-0.5,4.1-0.5h12.7l0.8-5.1h-13c-6.1,0-10.7,1.4-14,4.3c-1.6,1.4-3,3.3-4.1,5.5
	c-1.1,2.2-1.9,4.9-2.4,8c-0.5,3.2-0.5,5.9,0.1,8.2c0.6,2.3,1.7,4.1,3.4,5.5c1.5,1.3,3.1,2.1,5.1,2.5c1.8,0.4,3.8,0.5,6.2,0.5h10.6
	h2.6l3.2-20.2h-1.7h-5.4h-6l-0.8,5.1h6l-1.6,10h-5.8c-3.4,0-5.6-0.7-6.9-2.1c-1.3-1.5-1.7-3.8-1.2-7.2L170.8,21.9z"/>
<g id="XMLID_138_">
	<path id="XMLID_166_" class="st0" d="M455.7,31.2c0,1.2-0.9,2.1-2.1,2.1c-1.2,0-2.1-0.9-2.1-2.1s0.9-2.1,2.1-2.1
		C454.8,29.1,455.7,30.1,455.7,31.2"/>
	<g id="XMLID_140_">
		<path id="XMLID_161_" class="st0" d="M409.5,27.6l3.2,0l0.5-3.3c-1.1,0.2-2.1,0.3-3.1,0.4l0-0.6c2.4-0.2,4.6-0.6,6.5-1.1l0.1,0.6
			c-0.9,0.2-1.8,0.5-2.8,0.6l-0.5,3.4l2.8,0l-0.1,0.6l-2.8,0l-0.2,1.1c1,0.9,1.9,1.9,2.9,3.1l-0.4,0.5c-1-1.3-1.8-2.3-2.6-3
			l-1.4,8.7l-0.6,0l1.5-9.2c-1.1,2-2.5,3.8-4.2,5.4l-0.2-0.6c2-1.7,3.5-3.7,4.5-5.9l-3.1,0L409.5,27.6z M424.8,32.4l0,0.6l-2.1,0.3
			l-0.8,5.2l-0.6,0l0.8-5.1l-6.1,0.9l0-0.6l6.2-1l1.6-10.2l0.6,0l-1.6,10.1L424.8,32.4z M417.5,27.7c1.3,1,2.3,2.1,3.2,3.1l-0.5,0.4
			c-0.8-1-1.8-2-3.1-3.1L417.5,27.7z M418.7,23.6c1.3,1,2.3,2,3.1,3l-0.5,0.4c-0.8-1-1.8-2-3.1-3L418.7,23.6z"/>
		<path id="XMLID_157_" class="st0" d="M426.1,38.4l0-0.6c0.5,0,1,0.1,1.4,0.1c0.6,0,1-0.3,1.1-0.9l0.8-5c-0.9,0.4-1.8,0.7-2.8,1
			l0-0.6c1-0.3,1.9-0.6,2.9-0.9l0.8-4.7l-2.4,0l0.1-0.6l2.4,0l0.6-3.5l0.6,0l-0.6,3.5l2.2,0l-0.1,0.6l-2.2,0l-0.7,4.5
			c0.9-0.4,1.7-0.8,2.4-1.1l-0.1,0.6c-0.7,0.4-1.5,0.8-2.4,1.1l-0.9,5.4c-0.1,0.9-0.7,1.3-1.5,1.3L426.1,38.4z M434,25.4l4.6,0
			l0.5-2.8l0.6,0l-0.5,2.8l4.6,0l-0.1,0.6l-4.6,0l-0.6,3.5l3.9,0l-0.1,0.6c-1.1,2.1-2.5,3.8-4.4,5.3c1.1,1.1,2.6,2,4.4,2.8l-0.4,0.5
			c-1.8-0.8-3.3-1.8-4.4-2.9c-1.7,1.2-3.7,2.2-6,3l-0.2-0.5c2.2-0.7,4.2-1.6,5.8-2.8c-1.4-1.5-2.3-3.3-2.5-5.3l-1,0l0.1-0.6l4.3,0
			l0.6-3.5l-4.6,0L434,25.4z M435.2,30.1c0.2,1.9,1,3.5,2.4,4.9c1.8-1.4,3.1-3,4.1-4.9L435.2,30.1z"/>
		<path id="XMLID_154_" class="st0" d="M473,22.8c1.5,2.3,3.9,4.1,7.2,5.6l-0.4,0.5c-3.1-1.4-5.4-3.2-7.1-5.4
			c-2.6,2.3-5.6,4.1-8.9,5.5l-0.3-0.5c3.5-1.5,6.5-3.3,9.1-5.6L473,22.8z M467.1,27.7l9.7,0l-0.1,0.6l-4.5,0l-0.6,3.3l6.9,0
			l-0.1,0.6l-6.9,0l-0.9,5.5l2.6,0c1-1.3,1.9-2.7,2.6-4.1l0.6,0.2c-0.8,1.5-1.7,2.8-2.5,3.9l4.3,0l-0.1,0.6l-15.8,0l0.1-0.6l4.2,0
			c-0.2-1.3-0.6-2.6-1.2-3.8l0.6-0.2c0.5,1.1,0.9,2.4,1.2,4l2.7,0l0.9-5.5l-7,0l0.1-0.6l7,0l0.6-3.3l-4.5,0L467.1,27.7z"/>
		<path id="XMLID_144_" class="st0" d="M483.1,23.4l8.7,0l-0.1,0.6l-8.7,0L483.1,23.4z M486.3,38.8l-0.1-0.6l1.4,0
			c0.4,0,0.7-0.2,0.7-0.6l1.1-6.4l-6.7,0l-1.3,7.6l-0.6,0l1.4-8.2l7.9,0l-1.2,7.1c-0.1,0.7-0.5,1-1.2,1L486.3,38.8z M483.9,25.6
			l6.4,0l-0.6,3.5l-6.4,0L483.9,25.6z M489.6,26.2l-5.2,0l-0.4,2.4l5.2,0L489.6,26.2z M483.2,34.7l2.7,0c0.5-0.8,1-1.6,1.5-2.6
			l0.5,0.2c-0.4,0.9-0.9,1.7-1.4,2.4l1.6,0l-0.1,0.5l-2.2,0l-0.6,3.5l-0.6,0l0.6-3.5l-2.1,0L483.2,34.7z M484.5,32.2
			c0.3,0.6,0.5,1.3,0.7,2l-0.5,0.1c-0.1-0.7-0.4-1.3-0.7-2L484.5,32.2z M492.3,25.9l2.8,0l0.6-3.3h0.6l-0.6,3.3l2.8,0l-1.1,6.7
			l-2.8,0l-0.8,4.8c0.9-0.2,1.8-0.3,2.6-0.5c-0.1-0.8-0.3-1.6-0.5-2.6l0.6-0.2c0.4,1.4,0.6,2.9,0.7,4.6l-0.6,0.1l-0.1-1.4
			c-2,0.5-4.1,0.9-6.5,1.2l0-0.6c1.4-0.2,2.4-0.3,3.2-0.5l0.8-5l-2.8,0L492.3,25.9z M495,26.4l-2.2,0l-0.9,5.5l2.2,0L495,26.4z
			 M497.8,26.4l-2.2,0l-0.9,5.5l2.2,0L497.8,26.4z"/>
	</g>
</g>
<path id="XMLID_124_" class="st0" d="M357.8,0.3L352,38.9h35.5c5,0.1,7.8-2,8.3-6.4l4.8-32.2H357.8z M392.8,10.9h-6.3l0.6-4.3H381
	l-0.6,4.3h-15.4l-0.5,3.6h7.9c-1.6,6.2-5,11.3-10.2,15.3l-0.6,3.7c8.6-3.9,14.2-10.3,16.7-19.1h1.6l-2,13.5
	c-0.2,1.5-1.2,2.3-2.9,2.3h-2l-0.5,3.1h4.4c4.3,0.1,6.7-1.5,7.2-5.5l2-13.4h6.3l-2.7,18.2c-0.2,1.9-1.3,2.9-3.4,2.9h-27.5l4.7-31.3
	h30.4L392.8,10.9z"/>
<path id="XMLID_119_" class="st0" d="M334.9,0.3h-6.9l-0.5,3.3H322c0.4-0.7,0.8-1.4,1.1-2.1h-6.8c-1.5,3.4-3.1,5.6-7.7,7.3l-0.5,3.2
	c0.8-0.2,1.6-0.3,2.3-0.5l0,0.2l0,0l-0.6,3.7l-0.3,1.8l0,0l-0.5,3l0,0l-0.4,2.7h5.1h10.8h6.9H349l0.4-2.7h-17.5l0.4-3h16.3l0.4-2.7
	h-16.3l0.4-2.8h16.3l0.4-2.7h-16.2l0.4-2.7h16.2l0.4-2.7h-16.2L334.9,0.3z M325,20.2h-10.8l0.5-3h10.8L325,20.2z M325.9,14.5h-10.8
	l0.4-2.8h10.8L325.9,14.5z M326.7,9h-10.2c1.3-0.8,2.4-1.7,3.4-2.7h7.2L326.7,9z"/>
<path id="XMLID_118_" class="st0" d="M331.3,24.2h-6.9l-0.3,1.9H306l-0.6,3.6h7.4c-1.7,2.7-4.5,4.7-8.4,6.2l-0.4,2.9
	c7.2-1.3,12.2-4.4,15-9.1h4.6l-1.4,9.2h6.9l1.4-9.2h3.8c1.4,4.7,5.4,7.7,12.2,9.1l0.4-2.9c-3.5-1.4-5.6-3.5-6.5-6.2h7.5l0.6-3.6H331
	L331.3,24.2z"/>
<polygon id="XMLID_114_" class="st0" points="286.2,0.3 279.4,0.3 278.8,3.8 261.2,3.8 260.6,7.5 303.1,7.5 303.7,3.8 285.7,3.8 "/>
<path id="XMLID_111_" class="st0" d="M266.3,10.9h-4.4l-0.5,3.2h0l-1,6.4l-0.6,3.6l0,0h16.7l-1.4,9c-0.1,1.7-1.2,2.3-3.1,2.3h-2
	l-0.6,3.5h4.8c4.2,0.1,6.5-1.6,6.9-5.1l1.5-9.7h16.3l0.6-3.6h0l1-6.4l0.5-3.2h-4.4H266.3z M295,20.5l-30.3,0.4l1-6.4h30.2L295,20.5z
	"/>
<path id="XMLID_110_" class="st0" d="M292.4,26h-6.1c0.9,5.6,5,9.1,12.5,10.6l0.4-2.9C295.1,32,292.9,29.5,292.4,26z"/>
<path id="XMLID_109_" class="st0" d="M265.7,26c-1.5,3.4-4.6,6-9.2,7.7l-0.5,2.9c8-1.5,13.2-5,15.6-10.6H265.7z"/>
<path id="XMLID_108_" class="st0" d="M214.8,26.2h8.1c0,0,1.8,0,6,0l1.2-8.2l0.6-3.5h-19.4l-0.6,3.5h6.6c0.1,0,0.2,0,0.3,0h7.5
	c0,0.3-0.5,3.4-0.7,4.7h-1.1c-0.6,0-0.1,0-1.5,0h-5.1c-0.1,0-0.2,0-0.3,0H210l-0.6,3.5l-2,12.5h5.4c5.4-1.2,13.6-4.5,13.6-4.5
	l0.5-3.3c-4.2,1-13.5,3.9-13.5,3.9L214.8,26.2z"/>
<polygon id="XMLID_107_" class="st0" points="226.6,11.7 231.2,11.7 231.9,7.4 232.7,2.1 228.1,2.1 227.3,7.4 224.4,7.4 225.6,0.1 
	221,0.1 219.9,7.4 217,7.4 217.8,2.1 213.3,2.1 212.4,7.4 211.8,11.7 216.3,11.7 "/>
<path id="XMLID_106_" class="st0" d="M248.5,31.8L248.5,31.8L248.5,31.8C248.5,31.8,248.5,31.9,248.5,31.8l-0.4,2.6
	c-0.1,0.6-0.6,1-1.2,1h-0.5c-0.6,0-1-0.5-0.9-1l0.4-2.5c0,0,0,0,0-0.1h0l3.6-25.9l0.5-3.8h-14.7l-0.5,3.8h0l-2.3,16.2
	c-1.4,11.7-4.8,12.5-4.8,12.5l-0.6,4.2c9.3-2.7,10.7-16.7,10.7-16.7L240,5.9h4.3l-3.9,28.2c0,0-1,4.7,4,4.7h3.2c0,0,2.8-0.2,3.6-2.9
	l0.6-4H248.5z"/>
<path id="XMLID_105_" class="st1" d="M223.9,26.4"/>
<path id="XMLID_104_" class="st1" d="M225.7,14.7"/>
</svg>
