<?xml version="1.0" standalone="no"?><!DOCTYPE svg PUBLIC "-//W3C//DTD SVG 1.1//EN" "http://www.w3.org/Graphics/SVG/1.1/DTD/svg11.dtd"><svg t="1510814842770" class="icon" style="" viewBox="0 0 1024 1024" version="1.1" xmlns="http://www.w3.org/2000/svg" p-id="2215" xmlns:xlink="http://www.w3.org/1999/xlink" width="200" height="200"><defs><style type="text/css"></style></defs><path d="M136.533568 460.565045V947.412741A25.599984 25.599984 0 0 0 162.176219 972.799392h691.114234c14.335991 0 25.642651-11.30666 25.642651-25.365317V460.586379a25.599984 25.599984 0 0 0-25.642651-25.365318H162.176219c-14.335991 0-25.642651 11.30666-25.642651 25.365318z m-51.199968 0A76.543952 76.543952 0 0 1 162.176219 383.99976h691.114234a76.799952 76.799952 0 0 1 76.842619 76.565285V947.412741A76.543952 76.543952 0 0 1 853.290453 1023.99936H162.176219A76.799952 76.799952 0 0 1 85.3336 947.434075V460.586379z" p-id="2216" fill="#b4bccc"></path><path d="M290.133472 217.599864c0-91.733276 74.60262-166.399896 166.421229-166.399896H546.133312a166.442563 166.442563 0 0 1 166.421229 166.399896v91.519943s7.082662 17.557322 27.221317 17.557322c20.159987 0 23.978652-17.535989 23.978651-17.535989V217.599864C763.733176 97.429272 666.239904 0 546.111979 0H456.533368C336.362776 0 238.933504 97.663939 238.933504 217.599864v191.99988l51.199968-9.813327V217.599864z m0 0c0-91.733276 74.60262-166.399896 166.421229-166.399896H546.133312a166.442563 166.442563 0 0 1 166.421229 166.399896v91.519943h51.199968V217.599864C763.733176 97.429272 666.239904 0 546.111979 0H456.533368C336.362776 0 238.933504 97.663939 238.933504 217.599864v191.99988l51.199968-9.813327V217.599864zM495.829343 576.831639v241.130516a25.599984 25.599984 0 1 0 51.199968 0V576.831639a25.599984 25.599984 0 1 0-51.199968 0z" p-id="2217" fill="#b4bccc"></path></svg>